<svg id="shopping-basket" xmlns="http://www.w3.org/2000/svg" width="68" height="58"><path id="Path_19" data-name="Path 19" d="M247.328 202.644a1.328 1.328 0 1 0-1.328-1.328 1.329 1.329 0 0 0 1.328 1.328zm0 0" transform="translate(-213.328 -173.635)" fill="#fff"/><path id="Path_20" data-name="Path 20" d="M62.687 18.454h-7.854L42.752 1.956A4.007 4.007 0 0 0 37.377.5a3.938 3.938 0 0 0-1.547 5.375 1.342 1.342 0 0 0 .1.156l9.476 12.423H22.591l9.477-12.423a1.412 1.412 0 0 0 .1-.156A3.938 3.938 0 0 0 30.621.5a4.009 4.009 0 0 0-5.373 1.459l-12.082 16.5H5.312a5.268 5.268 0 0 0-1.7 10.269 1.329 1.329 0 0 0 .812.272 1.3 1.3 0 0 1 .179.012 1.32 1.32 0 0 1 1.128 1.07l4.518 24.672A3.975 3.975 0 0 0 14.17 58h39.66a3.975 3.975 0 0 0 3.921-3.247l4.518-24.671a1.321 1.321 0 0 1 1.131-1.07 1.243 1.243 0 0 1 .176-.012 1.326 1.326 0 0 0 .817-.28 5.267 5.267 0 0 0-1.705-10.266zM38.115 4.526a1.312 1.312 0 0 1 .55-1.726 1.335 1.335 0 0 1 1.808.508 1.238 1.238 0 0 0 .087.136l10.99 15.007h-2.81zM27.44 3.447a1.414 1.414 0 0 0 .087-.134 1.337 1.337 0 0 1 1.806-.513 1.312 1.312 0 0 1 .551 1.724L19.26 18.454h-2.81zm35.247 22.916H39.312a1.312 1.312 0 1 0 0 2.623h20.506a3.978 3.978 0 0 0-.163.611l-4.518 24.685a1.325 1.325 0 0 1-1.307 1.082H14.17a1.325 1.325 0 0 1-1.307-1.082L8.344 29.61a3.956 3.956 0 0 0-.163-.61h20.506a1.318 1.318 0 1 0 0-2.636H5.312a2.637 2.637 0 1 1 0-5.273h57.375a2.637 2.637 0 1 1 0 5.273zm0 0" transform="translate(0 -.001)" fill="#fff"/><path id="Path_21" data-name="Path 21" d="M229.984 249.988a3.989 3.989 0 0 0-3.984 3.984V264.6a3.984 3.984 0 0 0 7.969 0v-10.628a3.983 3.983 0 0 0-3.985-3.984zm1.328 14.609a1.328 1.328 0 0 1-2.656 0v-10.625a1.328 1.328 0 0 1 2.656 0zm0 0" transform="translate(-195.984 -217.222)" fill="#fff"/><path id="Path_22" data-name="Path 22" d="M329.984 268.582a3.989 3.989 0 0 0 3.984-3.984v-10.626a3.984 3.984 0 0 0-7.969 0V264.6a3.989 3.989 0 0 0 3.985 3.982zm-1.328-14.609a1.328 1.328 0 0 1 2.656 0V264.6a1.328 1.328 0 0 1-2.656 0zm0 0" transform="translate(-282.703 -217.222)" fill="#fff"/><path id="Path_23" data-name="Path 23" d="M129.984 249.988a3.989 3.989 0 0 0-3.984 3.984V264.6a3.984 3.984 0 1 0 7.969 0v-10.628a3.983 3.983 0 0 0-3.985-3.984zm1.328 14.609a1.328 1.328 0 0 1-2.656 0v-10.625a1.328 1.328 0 0 1 2.656 0zm0 0" transform="translate(-109.266 -217.222)" fill="#fff"/></svg>