<svg id="twitch" xmlns="http://www.w3.org/2000/svg" width="68" height="69"><g id="Group_13" data-name="Group 13" fill="#7f7f7f"><path id="Path_29" data-name="Path 29" d="M9.833 47.667h13.334v6.667a1.334 1.334 0 0 0 .823 1.232 1.316 1.316 0 0 0 .511.1 1.334 1.334 0 0 0 .943-.391l7.609-7.609h14.78a1.33 1.33 0 0 0 .943-.391l8.667-8.667a1.327 1.327 0 0 0 .391-.943V6.333A1.333 1.333 0 0 0 56.5 5H9.833A1.333 1.333 0 0 0 8.5 6.333v40a1.333 1.333 0 0 0 1.333 1.334zm1.333-40h44v29.448L47.281 45H32.5a1.33 1.33 0 0 0-.943.391l-5.724 5.724v-4.782A1.333 1.333 0 0 0 24.5 45H11.167z" transform="translate(2.167 1.667)"/><path id="Path_30" data-name="Path 30" d="M67.167 0H6.5a1.335 1.335 0 0 0-1.152.658L.681 8.62a1.326 1.326 0 0 0-.181.668v49.1a1.33 1.33 0 0 0 1.333 1.327H16.5v7.962A1.33 1.33 0 0 0 17.833 69h9.333a1.34 1.34 0 0 0 .892-.341l9.991-8.947H50.5a1.34 1.34 0 0 0 .9-.35L68.069 44.1a1.324 1.324 0 0 0 .431-.977V1.327A1.33 1.33 0 0 0 67.167 0zm-1.334 42.544L49.98 57.058H37.537a1.34 1.34 0 0 0-.892.341l-9.991 8.947h-7.487v-7.961a1.33 1.33 0 0 0-1.333-1.327H3.167V9.648l4.1-6.994h58.566z" transform="translate(-.5)"/><path id="Path_31" data-name="Path 31" d="M21.833 33h5.333a1.333 1.333 0 0 0 1.334-1.333V14.333A1.333 1.333 0 0 0 27.167 13h-5.334a1.333 1.333 0 0 0-1.333 1.333v17.334A1.333 1.333 0 0 0 21.833 33zm1.333-17.333h2.667v14.666h-2.666z" transform="translate(6.167 4.216)"/><path id="Path_32" data-name="Path 32" d="M31.833 33h5.333a1.333 1.333 0 0 0 1.334-1.333V14.333A1.333 1.333 0 0 0 37.167 13h-5.334a1.333 1.333 0 0 0-1.333 1.333v17.334A1.333 1.333 0 0 0 31.833 33zm1.333-17.333h2.667v14.666h-2.666z" transform="translate(9.5 4.216)"/></g></svg>