<svg id="contact" xmlns="http://www.w3.org/2000/svg" width="68" height="65" viewBox="0 0 68 65">
  <g id="Group_27" data-name="Group 27" transform="translate(0)">
    <g id="Group_26" data-name="Group 26">
      <path id="Path_39" data-name="Path 39" d="M65.11,12.813h-47.5a2.9,2.9,0,0,0-2.891,2.909V28.9l-2.172-3.278A3.346,3.346,0,0,0,8.015,24.6L3.546,27.3a6.592,6.592,0,0,0-3,3.909c-1.63,5.973-.421,16.263,14.59,31.369,11.937,12,20.837,15.231,26.971,15.231a15.744,15.744,0,0,0,4.206-.552A6.574,6.574,0,0,0,50.2,74.25l2.683-4.5a3.393,3.393,0,0,0-1.02-4.557l-10.7-7.177a3.363,3.363,0,0,0-4.521.738l-3.115,4.03a1.08,1.08,0,0,1-1.388.3l-.593-.329c-1.951-1.07-4.379-2.4-9.283-7.337-.531-.534-1.011-1.033-1.462-1.511H65.11A2.9,2.9,0,0,0,68,51.006V15.722A2.9,2.9,0,0,0,65.11,12.813ZM30.465,64.753l.576.318a3.326,3.326,0,0,0,4.279-.887l3.115-4.03a1.1,1.1,0,0,1,1.474-.241l10.7,7.177a1.106,1.106,0,0,1,.332,1.483l-2.683,4.5a4.312,4.312,0,0,1-2.54,1.985c-5.359,1.483-14.737.228-28.971-14.1S1.271,37.2,2.741,31.816A4.331,4.331,0,0,1,4.712,29.26l4.473-2.7a1.092,1.092,0,0,1,1.474.334L17.8,37.66a1.112,1.112,0,0,1-.239,1.483L13.55,42.279a3.373,3.373,0,0,0-.882,4.305l.317.579c1.134,2.092,2.543,4.7,7.679,9.863S28.387,63.612,30.465,64.753ZM65.734,51.006a.621.621,0,0,1-.623.616H18.759a28.775,28.775,0,0,1-3.783-5.548l-.327-.6a1.093,1.093,0,0,1,.293-1.394l4.006-3.136a3.411,3.411,0,0,0,.733-4.549l-2.693-4.068V15.722a.622.622,0,0,1,.181-.446.615.615,0,0,1,.443-.182h47.5a.615.615,0,0,1,.443.182.623.623,0,0,1,.181.446V51.006Z" transform="translate(-0.001 -12.813)" fill="#7f7f7f"/>
      <path id="Path_40" data-name="Path 40" d="M189.816,50.818,170.87,65.187a1.529,1.529,0,0,1-1.8,0L150.133,50.818a1.134,1.134,0,1,0-1.37,1.807L167.7,66.993a3.815,3.815,0,0,0,4.534,0l18.947-14.367a1.134,1.134,0,0,0-1.369-1.807Z" transform="translate(-128.611 -45.57)" fill="#7f7f7f"/>
      <path id="Path_41" data-name="Path 41" d="M160.727,172.727l-11.613,12.436a1.134,1.134,0,1,0,1.658,1.546l11.613-12.441a1.134,1.134,0,0,0-1.659-1.541Z" transform="translate(-129.041 -151.037)" fill="#7f7f7f"/>
      <path id="Path_42" data-name="Path 42" d="M371.914,172.439a1.134,1.134,0,1,0-1.658,1.546l11.609,12.436a1.134,1.134,0,0,0,1.658-1.546Z" transform="translate(-320.805 -150.749)" fill="#7f7f7f"/>
    </g>
  </g>
</svg>
