<svg id="shopping-basket" xmlns="http://www.w3.org/2000/svg" width="68" height="58" viewBox="0 0 68 58">
  <path id="Path_19" data-name="Path 19" d="M247.328,202.644A1.328,1.328,0,1,0,246,201.316,1.329,1.329,0,0,0,247.328,202.644Zm0,0" transform="translate(-213.328 -173.635)" fill="#fff"/>
  <path id="Path_20" data-name="Path 20" d="M62.687,18.454H54.833L42.752,1.956A4.007,4.007,0,0,0,37.377.5,3.938,3.938,0,0,0,35.83,5.875a1.342,1.342,0,0,0,.1.156l9.476,12.423H22.591L32.068,6.031a1.412,1.412,0,0,0,.1-.156A3.938,3.938,0,0,0,30.621.5a4.009,4.009,0,0,0-5.373,1.459l-12.082,16.5H5.312a5.268,5.268,0,0,0-1.7,10.269A1.329,1.329,0,0,0,4.424,29a1.3,1.3,0,0,1,.179.012,1.32,1.32,0,0,1,1.128,1.07l4.518,24.672A3.975,3.975,0,0,0,14.17,58H53.83a3.975,3.975,0,0,0,3.921-3.247l4.518-24.671A1.321,1.321,0,0,1,63.4,29.012,1.243,1.243,0,0,1,63.576,29a1.326,1.326,0,0,0,.817-.28,5.267,5.267,0,0,0-1.705-10.266ZM38.115,4.526A1.312,1.312,0,0,1,38.665,2.8a1.335,1.335,0,0,1,1.808.508,1.238,1.238,0,0,0,.087.136l10.99,15.007h-2.81ZM27.44,3.447a1.414,1.414,0,0,0,.087-.134A1.337,1.337,0,0,1,29.333,2.8a1.312,1.312,0,0,1,.551,1.724L19.26,18.454H16.45ZM62.687,26.363H39.312a1.312,1.312,0,1,0,0,2.623H59.818a3.978,3.978,0,0,0-.163.611L55.137,54.282a1.325,1.325,0,0,1-1.307,1.082H14.17a1.325,1.325,0,0,1-1.307-1.082L8.344,29.61A3.956,3.956,0,0,0,8.181,29H28.687a1.318,1.318,0,1,0,0-2.636H5.312a2.637,2.637,0,1,1,0-5.273H62.687a2.637,2.637,0,1,1,0,5.273Zm0,0" transform="translate(0 -0.001)" fill="#fff"/>
  <path id="Path_21" data-name="Path 21" d="M229.984,249.988A3.989,3.989,0,0,0,226,253.972V264.6a3.984,3.984,0,0,0,7.969,0V253.972A3.983,3.983,0,0,0,229.984,249.988Zm1.328,14.609a1.328,1.328,0,0,1-2.656,0V253.972a1.328,1.328,0,0,1,2.656,0Zm0,0" transform="translate(-195.984 -217.222)" fill="#fff"/>
  <path id="Path_22" data-name="Path 22" d="M329.984,268.582a3.989,3.989,0,0,0,3.984-3.984V253.972a3.984,3.984,0,0,0-7.969,0V264.6A3.989,3.989,0,0,0,329.984,268.582Zm-1.328-14.609a1.328,1.328,0,0,1,2.656,0V264.6a1.328,1.328,0,0,1-2.656,0Zm0,0" transform="translate(-282.703 -217.222)" fill="#fff"/>
  <path id="Path_23" data-name="Path 23" d="M129.984,249.988A3.989,3.989,0,0,0,126,253.972V264.6a3.984,3.984,0,1,0,7.969,0V253.972A3.983,3.983,0,0,0,129.984,249.988Zm1.328,14.609a1.328,1.328,0,0,1-2.656,0V253.972a1.328,1.328,0,0,1,2.656,0Zm0,0" transform="translate(-109.266 -217.222)" fill="#fff"/>
</svg>
