<svg id="twitch" xmlns="http://www.w3.org/2000/svg" width="68" height="69" viewBox="0 0 68 69">
  <g id="Group_13" data-name="Group 13">
    <path id="Path_29" data-name="Path 29" d="M9.833,47.667H23.167v6.667a1.334,1.334,0,0,0,.823,1.232,1.316,1.316,0,0,0,.511.1,1.334,1.334,0,0,0,.943-.391l7.609-7.609H47.833a1.33,1.33,0,0,0,.943-.391l8.667-8.667a1.327,1.327,0,0,0,.391-.943V6.333A1.333,1.333,0,0,0,56.5,5H9.833A1.333,1.333,0,0,0,8.5,6.333v40A1.333,1.333,0,0,0,9.833,47.667Zm1.333-40h44V37.115L47.281,45H32.5a1.33,1.33,0,0,0-.943.391l-5.724,5.724V46.333A1.333,1.333,0,0,0,24.5,45H11.167Z" transform="translate(2.167 1.667)" fill="#7f7f7f"/>
    <path id="Path_30" data-name="Path 30" d="M67.167,0H6.5A1.335,1.335,0,0,0,5.348.658L.681,8.62A1.326,1.326,0,0,0,.5,9.288v49.1a1.33,1.33,0,0,0,1.333,1.327H16.5v7.962A1.33,1.33,0,0,0,17.833,69h9.333a1.34,1.34,0,0,0,.892-.341l9.991-8.947H50.5a1.34,1.34,0,0,0,.9-.35L68.069,44.1a1.324,1.324,0,0,0,.431-.977V1.327A1.33,1.33,0,0,0,67.167,0ZM65.833,42.544,49.98,57.058H37.537a1.34,1.34,0,0,0-.892.341l-9.991,8.947H19.167V58.385a1.33,1.33,0,0,0-1.333-1.327H3.167V9.648l4.1-6.994H65.833Z" transform="translate(-0.5)" fill="#7f7f7f"/>
    <path id="Path_31" data-name="Path 31" d="M21.833,33h5.333A1.333,1.333,0,0,0,28.5,31.667V14.333A1.333,1.333,0,0,0,27.167,13H21.833A1.333,1.333,0,0,0,20.5,14.333V31.667A1.333,1.333,0,0,0,21.833,33Zm1.333-17.333h2.667V30.333H23.167Z" transform="translate(6.167 4.216)" fill="#7f7f7f"/>
    <path id="Path_32" data-name="Path 32" d="M31.833,33h5.333A1.333,1.333,0,0,0,38.5,31.667V14.333A1.333,1.333,0,0,0,37.167,13H31.833A1.333,1.333,0,0,0,30.5,14.333V31.667A1.333,1.333,0,0,0,31.833,33Zm1.333-17.333h2.667V30.333H33.167Z" transform="translate(9.5 4.216)" fill="#7f7f7f"/>
  </g>
</svg>
